<svg xmlns="http://www.w3.org/2000/svg" viewBox="0 0 12 12" width="48" height="48" fill="#8f907e" shape-rendering="crispEdges"><rect x="9" y="0" width="2" height="1"></rect><rect x="9" y="1" width="2" height="1"></rect><rect x="9" y="2" width="2" height="1"></rect><rect x="6" y="3" width="2" height="1"></rect><rect x="9" y="3" width="2" height="1"></rect><rect x="6" y="4" width="2" height="1"></rect><rect x="9" y="4" width="2" height="1"></rect><rect x="6" y="5" width="2" height="1"></rect><rect x="9" y="5" width="2" height="1"></rect><rect x="3" y="6" width="2" height="1"></rect><rect x="6" y="6" width="2" height="1"></rect><rect x="9" y="6" width="2" height="1"></rect><rect x="3" y="7" width="2" height="1"></rect><rect x="6" y="7" width="2" height="1"></rect><rect x="9" y="7" width="2" height="1"></rect><rect x="0" y="8" width="2" height="1"></rect><rect x="3" y="8" width="2" height="1"></rect><rect x="6" y="8" width="2" height="1"></rect><rect x="9" y="8" width="2" height="1"></rect><rect x="0" y="9" width="2" height="1"></rect><rect x="3" y="9" width="2" height="1"></rect><rect x="6" y="9" width="2" height="1"></rect><rect x="9" y="9" width="2" height="1"></rect><rect x="0" y="10" width="2" height="1"></rect><rect x="3" y="10" width="2" height="1"></rect><rect x="6" y="10" width="2" height="1"></rect><rect x="9" y="10" width="2" height="1"></rect><rect x="0" y="11" width="11" height="1"></rect></svg>